<svg version="1" xmlns="http://www.w3.org/2000/svg" width="2560" height="2560" viewBox="0 0 1920.000000 1920.000000"><path d="M903 1.1C603.3 19.6 331 175 163.8 423 79.6 547.9 26 690.4 7.1 840 1.9 881 0 912.6 0 960c0 47.4 1.9 79 7.1 120 34.8 275.1 186.3 521.4 415.9 676.2 124.9 84.2 267.4 137.8 417 156.7 41 5.2 72.6 7.1 120 7.1 47.4 0 79-1.9 120-7.1 275.1-34.8 521.4-186.3 676.2-415.9 84.2-124.9 137.8-267.4 156.7-417 5.2-41 7.1-72.6 7.1-120 0-47.4-1.9-79-7.1-120-34.8-275.1-186.3-521.4-415.9-676.2-51.6-34.8-105.2-63.9-161.5-87.8C1232.6 32.5 1127 7.9 1014 1c-19.3-1.2-91.4-1.1-111 .1z"/></svg>